# xmcd
#
# Track frame offsets:
# 150
# 12452
# 27117
# 46662
# 56265
# 68660
# 86700
# 100765
# 112870
# 125082
# 138740
# 155972
# 168085
# 180735
#
# Disc length: 2556 seconds
#
#
# Revision: 0
# Processed by: cddbd v1.4PL0 Copyright (c) Steve Scherf et al.
# Submitted via: FreeRIP 2.30 
#
DISCID=b409fa0e
DTITLE=Otis Redding - Big Artist Series - Best Hit Songs
DYEAR=1900
DGENRE=R&B
TTITLE0=The Dock Of The Bay
TTITLE1=I've Been Loving You Too Long
TTITLE2=A Change Is Gonna Come
TTITLE3=Respect
TTITLE4=Satisfaction
TTITLE5=Cigarettes And Coffee
TTITLE6=My Lover's Prayer
TTITLE7=Fa-Fa-Fa-Fa-Fa (Sad Song)
TTITLE8=It's Growing
TTITLE9=Tramp
TTITLE10=Try A Litte Tenderness
TTITLE11=Shake
TTITLE12=Keep Your Arms Around Me
TTITLE13=That's How Strong My Love Is
EXTD=GRN-86\nJapanese release
EXTT0=
EXTT1=
EXTT2=
EXTT3=
EXTT4=
EXTT5=
EXTT6=
EXTT7=
EXTT8=
EXTT9=
EXTT10=
EXTT11=
EXTT12=
EXTT13=
PLAYORDER=
